<?xml version="1.0" encoding="UTF-8"?>
<!--
  ════════════════════════════════════════════════════════════════════
  CIVIL-FI CERTIFICATION BADGE — CCFS
  Civil-Fi Specialist Charia
  Couleur dominante: Vert sombre #2D4A33 (marqueur Charia)
  ════════════════════════════════════════════════════════════════════
-->
<svg xmlns="http://www.w3.org/2000/svg" viewBox="0 0 320 320" width="320" height="320" role="img" aria-labelledby="title">
  <title id="title">CCFS — Civil-Fi Specialist Charia</title>

  <defs>
    <path id="ccfs-rim-top" d="M 32,160 A 128,128 0 0,1 288,160" />
    <path id="ccfs-rim-bottom" d="M 36,168 A 124,124 0 0,0 284,168" />
  </defs>

  <rect width="320" height="320" fill="#FFFDF7"/>

  <circle cx="160" cy="160" r="150" fill="#2D4A33"/>
  <circle cx="160" cy="160" r="150" fill="none" stroke="#C8A45A" stroke-width="0.6" opacity="0.6"/>
  <circle cx="160" cy="160" r="142" fill="none" stroke="#FFFDF7" stroke-width="0.4" opacity="0.4"/>

  <circle cx="160" cy="160" r="118" fill="#FFFDF7"/>
  <circle cx="160" cy="160" r="118" fill="none" stroke="#2D4A33" stroke-width="1"/>
  <circle cx="160" cy="160" r="113" fill="none" stroke="#2D4A33" stroke-width="0.4" opacity="0.4"/>

  <text font-family="'Fraunces', 'Cormorant Garamond', Georgia, serif" font-size="11" font-weight="600" letter-spacing="2.4" fill="#FFFDF7">
    <textPath href="#ccfs-rim-top" startOffset="50%" text-anchor="middle">CIVIL-FI SPECIALIST CHARIA</textPath>
  </text>

  <text font-family="'Fraunces', 'Cormorant Garamond', Georgia, serif" font-size="9.6" font-weight="500" letter-spacing="2.4" fill="#FFFDF7" fill-opacity="0.85">
    <textPath href="#ccfs-rim-bottom" startOffset="50%" text-anchor="middle">INSTITUT CIVIL-FI PAFC®  ·  MMXXVI</textPath>
  </text>

  <g fill="#C8A45A">
    <polygon points="304,160 296,154 296,166" />
    <polygon points="16,160 24,154 24,166" />
  </g>

  <!-- Étoile à 8 branches (filigrane islamique sobre) au sommet -->
  <g transform="translate(160, 70)" fill="none" stroke="#2D4A33" stroke-width="1">
    <polygon points="0,-8 5.7,-5.7 8,0 5.7,5.7 0,8 -5.7,5.7 -8,0 -5.7,-5.7"/>
    <polygon transform="rotate(22.5)" points="0,-8 5.7,-5.7 8,0 5.7,5.7 0,8 -5.7,5.7 -8,0 -5.7,-5.7"/>
  </g>

  <g fill="#2D4A33">
    <circle cx="120" cy="116" r="1.6"/>
    <circle cx="135" cy="113" r="1.2"/>
    <circle cx="160" cy="111" r="1.6"/>
    <circle cx="185" cy="113" r="1.2"/>
    <circle cx="200" cy="116" r="1.6"/>
  </g>

  <g stroke="#2D4A33" stroke-width="0.6">
    <line x1="76" y1="158" x2="92" y2="158"/>
    <line x1="228" y1="158" x2="244" y2="158"/>
  </g>

  <text x="160" y="180" font-family="'Fraunces', 'Cormorant Garamond', 'Playfair Display', Georgia, serif" font-size="56" font-weight="600" fill="#2D4A33" text-anchor="middle" letter-spacing="2">CCFS</text>

  <g transform="translate(160, 218)">
    <rect x="-72" y="-12" width="144" height="22" fill="#2D4A33"/>
    <polygon points="-72,-12 -78,-1 -72,10" fill="#2D4A33"/>
    <polygon points="72,-12 78,-1 72,10" fill="#2D4A33"/>
    <polygon points="-72,-12 -68,-1 -72,10" fill="#FFFDF7"/>
    <polygon points="72,-12 68,-1 72,10" fill="#FFFDF7"/>
    <text x="0" y="3" font-family="'Fraunces', Georgia, serif" font-size="10" font-weight="600" letter-spacing="2.2" fill="#FFFDF7" text-anchor="middle">SPECIALIST</text>
  </g>

  <line x1="124" y1="240" x2="196" y2="240" stroke="#C8A45A" stroke-width="0.6"/>

</svg>
